<mxfile host="app.diagrams.net" agent="Mozilla/5.0 (Windows NT 10.0; Win64; x64) AppleWebKit/537.36 (KHTML, like Gecko) Chrome/131.0.0.0 Safari/537.36" version="26.0.6">
  <diagram id="_y0JhXgUlWZNEPzRU09Q" name="Page-1">
    <mxGraphModel dx="1027" dy="554" grid="1" gridSize="10" guides="1" tooltips="1" connect="1" arrows="1" fold="1" page="1" pageScale="1" pageWidth="850" pageHeight="1100" math="0" shadow="0">
      <root>
        <mxCell id="0" />
        <mxCell id="1" parent="0" />
        <mxCell id="JkAD1GehYaMJUiKoVuQ1-1" value="" style="rounded=1;whiteSpace=wrap;html=1;direction=south;fillColor=#dae8fc;strokeColor=#6c8ebf;" parent="1" vertex="1">
          <mxGeometry x="290" y="240" width="310" height="480" as="geometry" />
        </mxCell>
        <mxCell id="be7GqZvRLehvllf6Z76l-1" style="edgeStyle=orthogonalEdgeStyle;rounded=0;orthogonalLoop=1;jettySize=auto;html=1;" edge="1" parent="1" source="JkAD1GehYaMJUiKoVuQ1-2" target="JkAD1GehYaMJUiKoVuQ1-7">
          <mxGeometry relative="1" as="geometry" />
        </mxCell>
        <mxCell id="be7GqZvRLehvllf6Z76l-2" style="edgeStyle=orthogonalEdgeStyle;rounded=0;orthogonalLoop=1;jettySize=auto;html=1;exitX=1;exitY=0.3333333333333333;exitDx=0;exitDy=0;exitPerimeter=0;entryX=0;entryY=0.5;entryDx=0;entryDy=0;" edge="1" parent="1" source="JkAD1GehYaMJUiKoVuQ1-2" target="JkAD1GehYaMJUiKoVuQ1-6">
          <mxGeometry relative="1" as="geometry" />
        </mxCell>
        <mxCell id="be7GqZvRLehvllf6Z76l-3" style="edgeStyle=orthogonalEdgeStyle;rounded=0;orthogonalLoop=1;jettySize=auto;html=1;exitX=1;exitY=1;exitDx=0;exitDy=0;exitPerimeter=0;entryX=0;entryY=0.5;entryDx=0;entryDy=0;" edge="1" parent="1" source="JkAD1GehYaMJUiKoVuQ1-2" target="JkAD1GehYaMJUiKoVuQ1-8">
          <mxGeometry relative="1" as="geometry" />
        </mxCell>
        <mxCell id="be7GqZvRLehvllf6Z76l-8" style="edgeStyle=orthogonalEdgeStyle;rounded=0;orthogonalLoop=1;jettySize=auto;html=1;entryX=0;entryY=0.5;entryDx=0;entryDy=0;" edge="1" parent="1" source="JkAD1GehYaMJUiKoVuQ1-2" target="JkAD1GehYaMJUiKoVuQ1-9">
          <mxGeometry relative="1" as="geometry">
            <Array as="points">
              <mxPoint x="185" y="460" />
              <mxPoint x="280" y="460" />
              <mxPoint x="280" y="470" />
            </Array>
          </mxGeometry>
        </mxCell>
        <mxCell id="be7GqZvRLehvllf6Z76l-10" style="edgeStyle=orthogonalEdgeStyle;rounded=0;orthogonalLoop=1;jettySize=auto;html=1;entryX=0;entryY=0.5;entryDx=0;entryDy=0;" edge="1" parent="1" source="JkAD1GehYaMJUiKoVuQ1-2" target="JkAD1GehYaMJUiKoVuQ1-17">
          <mxGeometry relative="1" as="geometry">
            <Array as="points">
              <mxPoint x="185" y="370" />
              <mxPoint x="440" y="370" />
            </Array>
          </mxGeometry>
        </mxCell>
        <mxCell id="JkAD1GehYaMJUiKoVuQ1-2" value="user" style="shape=umlActor;verticalLabelPosition=bottom;verticalAlign=top;html=1;outlineConnect=0;" parent="1" vertex="1">
          <mxGeometry x="170" y="300" width="30" height="60" as="geometry" />
        </mxCell>
        <mxCell id="be7GqZvRLehvllf6Z76l-5" style="edgeStyle=orthogonalEdgeStyle;rounded=0;orthogonalLoop=1;jettySize=auto;html=1;" edge="1" parent="1" source="JkAD1GehYaMJUiKoVuQ1-3" target="JkAD1GehYaMJUiKoVuQ1-15">
          <mxGeometry relative="1" as="geometry" />
        </mxCell>
        <mxCell id="be7GqZvRLehvllf6Z76l-6" style="edgeStyle=orthogonalEdgeStyle;rounded=0;orthogonalLoop=1;jettySize=auto;html=1;exitX=1;exitY=1;exitDx=0;exitDy=0;exitPerimeter=0;entryX=0;entryY=0.5;entryDx=0;entryDy=0;" edge="1" parent="1" source="JkAD1GehYaMJUiKoVuQ1-3" target="JkAD1GehYaMJUiKoVuQ1-11">
          <mxGeometry relative="1" as="geometry" />
        </mxCell>
        <mxCell id="be7GqZvRLehvllf6Z76l-14" style="edgeStyle=orthogonalEdgeStyle;rounded=0;orthogonalLoop=1;jettySize=auto;html=1;entryX=0;entryY=0.5;entryDx=0;entryDy=0;" edge="1" parent="1" source="JkAD1GehYaMJUiKoVuQ1-3" target="be7GqZvRLehvllf6Z76l-12">
          <mxGeometry relative="1" as="geometry">
            <Array as="points">
              <mxPoint x="430" y="520" />
              <mxPoint x="430" y="518" />
            </Array>
          </mxGeometry>
        </mxCell>
        <mxCell id="be7GqZvRLehvllf6Z76l-15" style="edgeStyle=orthogonalEdgeStyle;rounded=0;orthogonalLoop=1;jettySize=auto;html=1;entryX=0;entryY=0.5;entryDx=0;entryDy=0;" edge="1" parent="1" source="JkAD1GehYaMJUiKoVuQ1-3" target="be7GqZvRLehvllf6Z76l-13">
          <mxGeometry relative="1" as="geometry">
            <Array as="points">
              <mxPoint x="190" y="578" />
              <mxPoint x="335" y="578" />
            </Array>
          </mxGeometry>
        </mxCell>
        <mxCell id="JkAD1GehYaMJUiKoVuQ1-3" value="theatre owners" style="shape=umlActor;verticalLabelPosition=bottom;verticalAlign=top;html=1;outlineConnect=0;" parent="1" vertex="1">
          <mxGeometry x="170" y="490" width="40" height="60" as="geometry" />
        </mxCell>
        <mxCell id="be7GqZvRLehvllf6Z76l-11" style="edgeStyle=orthogonalEdgeStyle;rounded=0;orthogonalLoop=1;jettySize=auto;html=1;entryX=1;entryY=0.5;entryDx=0;entryDy=0;" edge="1" parent="1" source="JkAD1GehYaMJUiKoVuQ1-4" target="JkAD1GehYaMJUiKoVuQ1-17">
          <mxGeometry relative="1" as="geometry" />
        </mxCell>
        <mxCell id="JkAD1GehYaMJUiKoVuQ1-4" value="Distributors" style="shape=umlActor;verticalLabelPosition=bottom;verticalAlign=top;html=1;outlineConnect=0;" parent="1" vertex="1">
          <mxGeometry x="680" y="300" width="30" height="60" as="geometry" />
        </mxCell>
        <mxCell id="JkAD1GehYaMJUiKoVuQ1-6" value="book tickets()" style="ellipse;whiteSpace=wrap;html=1;" parent="1" vertex="1">
          <mxGeometry x="325" y="260" width="100" height="40" as="geometry" />
        </mxCell>
        <mxCell id="JkAD1GehYaMJUiKoVuQ1-7" value="cancel tickets()" style="ellipse;whiteSpace=wrap;html=1;" parent="1" vertex="1">
          <mxGeometry x="320" y="320" width="90" height="40" as="geometry" />
        </mxCell>
        <mxCell id="JkAD1GehYaMJUiKoVuQ1-8" value="register" style="ellipse;whiteSpace=wrap;html=1;" parent="1" vertex="1">
          <mxGeometry x="350" y="390" width="110" height="40" as="geometry" />
        </mxCell>
        <mxCell id="JkAD1GehYaMJUiKoVuQ1-9" value="review" style="ellipse;whiteSpace=wrap;html=1;" parent="1" vertex="1">
          <mxGeometry x="360" y="450" width="100" height="40" as="geometry" />
        </mxCell>
        <mxCell id="JkAD1GehYaMJUiKoVuQ1-10" value="register theatre" style="ellipse;whiteSpace=wrap;html=1;" parent="1" vertex="1">
          <mxGeometry x="350" y="640" width="110" height="40" as="geometry" />
        </mxCell>
        <mxCell id="JkAD1GehYaMJUiKoVuQ1-11" value="register show" style="ellipse;whiteSpace=wrap;html=1;" parent="1" vertex="1">
          <mxGeometry x="320" y="580" width="120" height="30" as="geometry" />
        </mxCell>
        <mxCell id="JkAD1GehYaMJUiKoVuQ1-15" value="cancel show" style="ellipse;whiteSpace=wrap;html=1;" parent="1" vertex="1">
          <mxGeometry x="320" y="535" width="120" height="30" as="geometry" />
        </mxCell>
        <mxCell id="JkAD1GehYaMJUiKoVuQ1-17" value="find theatres" style="ellipse;whiteSpace=wrap;html=1;" parent="1" vertex="1">
          <mxGeometry x="440" y="340" width="120" height="40" as="geometry" />
        </mxCell>
        <mxCell id="be7GqZvRLehvllf6Z76l-7" style="edgeStyle=orthogonalEdgeStyle;rounded=0;orthogonalLoop=1;jettySize=auto;html=1;entryX=0.043;entryY=0.676;entryDx=0;entryDy=0;entryPerimeter=0;" edge="1" parent="1" source="JkAD1GehYaMJUiKoVuQ1-3" target="JkAD1GehYaMJUiKoVuQ1-10">
          <mxGeometry relative="1" as="geometry">
            <Array as="points">
              <mxPoint x="190" y="660" />
              <mxPoint x="355" y="660" />
            </Array>
          </mxGeometry>
        </mxCell>
        <mxCell id="be7GqZvRLehvllf6Z76l-12" value="enroll movie&lt;div&gt;&lt;br&gt;&lt;/div&gt;" style="ellipse;whiteSpace=wrap;html=1;" vertex="1" parent="1">
          <mxGeometry x="450" y="500" width="120" height="35" as="geometry" />
        </mxCell>
        <mxCell id="be7GqZvRLehvllf6Z76l-13" value="delete movie" style="ellipse;whiteSpace=wrap;html=1;" vertex="1" parent="1">
          <mxGeometry x="460" y="565" width="120" height="25" as="geometry" />
        </mxCell>
      </root>
    </mxGraphModel>
  </diagram>
</mxfile>
